<svg width="16" height="16" viewBox="0 0 16 16" fill="none" xmlns="http://www.w3.org/2000/svg">
<path fill-rule="evenodd" clip-rule="evenodd" d="M11 7.99995C11 9.65681 9.65687 11 8.00001 11C6.34316 11 5.00001 9.65681 5.00001 7.99995C5.00001 6.3431 6.34316 4.99995 8.00001 4.99995C9.65687 4.99995 11 6.3431 11 7.99995ZM10 7.99995C10 9.10452 9.10458 9.99995 8.00001 9.99995C6.89544 9.99995 6.00001 9.10452 6.00001 7.99995C6.00001 6.89538 6.89544 5.99995 8.00001 5.99995C9.10458 5.99995 10 6.89538 10 7.99995Z" fill="#0E1011"/>
<path fill-rule="evenodd" clip-rule="evenodd" d="M2.30278 11.4572L2.48456 11.203C2.91493 10.601 2.56505 9.75628 1.83506 9.63492L1.52622 9.58358C1.11783 9.51569 0.786903 9.20367 0.742489 8.79205C0.714416 8.53187 0.700012 8.26759 0.700012 7.99995C0.700012 7.73225 0.714421 7.46792 0.742506 7.20769C0.786928 6.79609 1.11785 6.48408 1.52624 6.41618L1.83506 6.36484C2.56505 6.24349 2.91493 5.3988 2.48456 4.79681L2.30284 4.54262C2.0621 4.20588 2.0487 3.75133 2.3081 3.42874C2.64005 3.01594 3.01598 2.64001 3.42878 2.30806C3.75137 2.04866 4.20592 2.06205 4.54266 2.30279L4.79685 2.48452C5.39885 2.91489 6.24353 2.56501 6.36489 1.83501L6.41623 1.52618C6.48412 1.11779 6.79613 0.78687 7.20774 0.742447C7.46797 0.714361 7.73231 0.699951 8.00001 0.699951C8.26765 0.699951 8.53192 0.714354 8.79209 0.742426C9.20371 0.786838 9.51573 1.11776 9.58362 1.52616L9.63497 1.83502C9.75632 2.56501 10.601 2.91488 11.203 2.48452L11.4573 2.30273C11.794 2.06199 12.2486 2.04859 12.5712 2.30799C12.9839 2.63992 13.3599 3.01583 13.6918 3.42862C13.9512 3.7512 13.9378 4.20576 13.6971 4.54251L13.5153 4.79681C13.0849 5.3988 13.4348 6.24349 14.1648 6.36484L14.4738 6.41621C14.8822 6.48411 15.2131 6.79612 15.2575 7.20772C15.2856 7.46795 15.3 7.73227 15.3 7.99995C15.3 8.26758 15.2856 8.53185 15.2575 8.79202C15.2131 9.20364 14.8822 9.51566 14.4738 9.58355L14.1648 9.63492C13.4348 9.75628 13.0849 10.601 13.5153 11.203L13.6971 11.4573C13.9379 11.7941 13.9513 12.2486 13.6919 12.5712C13.3599 12.984 12.984 13.3599 12.5713 13.6918C12.2487 13.9512 11.7941 13.9378 11.4574 13.6971L11.203 13.5153C10.601 13.0849 9.75632 13.4348 9.63497 14.1648L9.5836 14.4737C9.5157 14.8821 9.20368 15.2131 8.79206 15.2575C8.5319 15.2856 8.26764 15.3 8.00001 15.3C7.73232 15.3 7.46799 15.2855 7.20776 15.2575C6.79616 15.213 6.48415 14.8821 6.41625 14.4737L6.36489 14.1648C6.24353 13.4348 5.39885 13.0849 4.79685 13.5153L4.54257 13.697C4.20582 13.9378 3.75127 13.9512 3.42868 13.6918C3.0159 13.3598 2.63998 12.9839 2.30804 12.5711C2.04865 12.2485 2.06205 11.794 2.30278 11.4572ZM3.13874 3.99239C3.39545 3.6814 3.68144 3.39541 3.99243 3.13869L4.21528 3.29801C5.41927 4.15875 7.10863 3.45899 7.35135 1.99901L7.39633 1.72843C7.59476 1.7096 7.79612 1.69995 8.00001 1.69995C8.20384 1.69995 8.40514 1.7096 8.60352 1.72841L8.6485 1.99901C8.89122 3.45899 10.5806 4.15875 11.7846 3.29801L12.0075 3.13863C12.3185 3.39533 12.6045 3.6813 12.8612 3.99228L12.7018 4.21524C11.8411 5.41923 12.5408 7.10859 14.0008 7.35131L14.2715 7.39631C14.2904 7.59473 14.3 7.79608 14.3 7.99995C14.3 8.20378 14.2904 8.40508 14.2716 8.60345L14.0008 8.64846C12.5408 8.89118 11.8411 10.5805 12.7018 11.7845L12.8612 12.0076C12.6045 12.3185 12.3186 12.6045 12.0076 12.8612L11.7846 12.7018C10.5806 11.841 8.89122 12.5408 8.6485 14.0008L8.6035 14.2715C8.40513 14.2903 8.20384 14.3 8.00001 14.3C7.79613 14.3 7.59478 14.2903 7.39635 14.2715L7.35135 14.0008C7.10863 12.5408 5.41927 11.841 4.21528 12.7018L3.99234 12.8611C3.68136 12.6044 3.39539 12.3184 3.13868 12.0075L3.29805 11.7845C4.15879 10.5805 3.45903 8.89118 1.99905 8.64846L1.72848 8.60348C1.70966 8.4051 1.70001 8.20379 1.70001 7.99995C1.70001 7.79607 1.70966 7.59471 1.72849 7.39628L1.99905 7.35131C3.45904 7.10859 4.15879 5.41922 3.29805 4.21524L3.13874 3.99239Z" fill="#0E1011"/>
</svg>
